<svg xmlns="http://www.w3.org/2000/svg" fill="none" viewBox="0 0 144 144" height="144" width="144">
<path fill="#F59200" d="M96.0467 112.291C97.5464 110.136 97.0465 105.485 92.3072 105.186C90.8874 105.086 71.3901 108.04 51.0129 109.457C35.975 110.515 20.4372 110.954 11.3584 111.134C14.038 115.186 17.1776 119.038 20.8171 122.67C25.6764 127.52 30.9557 131.512 36.5949 134.666C34.9751 126.622 43.114 122.471 49.3132 121.313C54.4124 120.355 86.328 115.545 89.7475 114.986C91.7873 114.667 94.7668 114.148 96.0467 112.311V112.291ZM71.85 0C51.7128 0 34.6952 6.92591 20.8171 20.7777C6.93904 34.6295 0 51.615 0 71.7141C0 78.0212 0.679906 84.009 2.05971 89.6975C21.0571 93.1504 45.4137 95.9847 72.01 95.9847C98.6063 95.9847 122.943 93.1105 141.94 89.6975C143.32 84.009 144 78.0212 144 71.7141C144 51.615 137.021 34.6295 123.043 20.7777C109.045 6.92591 92.0072 0 71.85 0ZM95.8867 16.6062C100.426 16.6062 104.086 20.2787 104.086 24.7896C104.086 29.3004 100.406 32.9729 95.8867 32.9729C91.3673 32.9729 87.6878 29.3004 87.6878 24.7896C87.6878 20.2787 91.3673 16.6062 95.8867 16.6062ZM48.0933 16.6062C52.6327 16.6062 56.2922 20.2787 56.2922 24.7896C56.2922 29.3004 52.6127 32.9729 48.0933 32.9729C43.5739 32.9729 39.8945 29.3004 39.8945 24.7896C39.8945 20.2787 43.5739 16.6062 48.0933 16.6062ZM23.6967 64.1295C20.6571 67.1633 15.7178 67.1633 12.6782 64.1295C9.63866 61.0957 9.63866 56.1657 12.6782 53.1319C15.7178 50.0981 20.6571 50.0981 23.6967 53.1319C26.7363 56.1657 26.7363 61.0957 23.6967 64.1295ZM71.99 85.0469C50.8329 85.0469 29.6959 81.4942 29.6959 81.4942C29.6959 56.6647 48.6332 36.5456 71.99 36.5456C95.3468 36.5456 114.284 56.6647 114.284 81.4942C114.284 81.4942 93.1271 85.0469 71.99 85.0469ZM131.302 53.1319C134.341 56.1657 134.341 61.0957 131.302 64.1295C128.262 67.1633 123.323 67.1633 120.283 64.1295C117.244 61.0957 117.244 56.1657 120.283 53.1319C123.323 50.0981 128.262 50.0981 131.302 53.1319ZM66.2308 138.518C69.4304 143.368 76.4894 145.404 87.3879 142.969C97.6464 140.674 116.864 133.229 132.442 111.274C93.307 122.431 76.9893 126.103 70.6302 127.321C64.991 128.399 63.4512 134.287 66.2308 138.518V138.518Z"></path>
</svg>
