<?xml version="1.0" encoding="UTF-8"?>
<svg width="360px" height="55px" viewBox="0 0 360 55" version="1.1" xmlns="http://www.w3.org/2000/svg" xmlns:xlink="http://www.w3.org/1999/xlink">
    <!-- Generator: Sketch 54.1 (76490) - https://sketchapp.com -->
    <title>Mask</title>
    <desc>Created with Sketch.</desc>
    <g id="Sprints" stroke="none" stroke-width="1" fill="none" fill-rule="evenodd">
        <g id="PDP-Default---Multiple-Activities---Future-State---M---1.1--Revised" transform="translate(0.000000, -219.000000)" fill="#F7F7F7">
            <g id="Group-24" transform="translate(0.000000, 56.000000)">
                <g id="Group-2">
                    <g id="header-wave" transform="translate(0.000000, 163.000000)">
                        <g id="Mask" transform="translate(-0.000000, 0.000000)">
                            <path d="M0.000158125915,23.1707143 C0.430787701,23.1707143 0.838752562,23.163381 1.2514612,23.1581429 C1.52185652,23.1544762 1.79752269,23.1518571 2.0605388,23.1455714 C2.52595608,23.1350952 2.97925037,23.1204286 3.42200293,23.102619 C3.67763982,23.0926667 3.92326208,23.0790476 4.17151977,23.0664762 C4.91365739,23.0287619 5.62522401,22.9821429 6.30832796,22.9255714 C6.52654173,22.9072381 6.7484451,22.8904762 6.96138799,22.8705714 C7.35564861,22.833381 7.74042167,22.7935714 8.11623426,22.7511429 C8.30229575,22.7296667 8.4825593,22.706619 8.6644041,22.6835714 C9.34065593,22.5997619 9.99002635,22.5070476 10.6130425,22.4054286 C10.7511391,22.3829048 10.8918712,22.3614286 11.0273324,22.3378571 C11.3873324,22.2760476 11.7394261,22.2121429 12.0841406,22.1450952 C12.1800703,22.1262381 12.2738917,22.1063333 12.3687672,22.0874762 C13.0850776,21.9434286 13.7739795,21.7899524 14.4365271,21.6265238 C14.4428521,21.6249524 14.4497042,21.623381 14.4560293,21.6218095 C15.5212709,21.3583333 16.5269517,21.0723333 17.5078594,20.7742857 C17.5695286,20.7554286 17.6317247,20.7365714 17.6928668,20.7171905 C18.6711391,20.4170476 19.6262196,20.1043333 20.5902606,19.789 C26.2991332,17.9184762 32.7691186,15.7991429 44.9969956,15.7991429 C57.2253997,15.7991429 63.6959122,17.9184762 69.4053119,19.789 C70.3672445,20.1043333 71.3202167,20.4154762 72.2958536,20.715619 C72.3622665,20.7360476 72.4286794,20.7559524 72.4950922,20.776381 C73.4733646,21.0739048 74.4758829,21.3588571 75.538489,21.6212857 C75.5469224,21.623381 75.5553558,21.6254762 75.5637892,21.6275714 C76.2258097,21.7904762 76.9141845,21.9439524 77.6294407,22.088 C77.7237892,22.1068571 77.8160293,22.1262381 77.9109048,22.1450952 C78.2561464,22.2121429 78.6092943,22.2765714 78.9692943,22.338381 C79.1042284,22.3614286 79.2444334,22.3829048 79.3820029,22.4054286 C80.0055461,22.5070476 80.6559707,22.5997619 81.3327496,22.6835714 C81.5140673,22.706619 81.6938038,22.7296667 81.8798653,22.7511429 C82.2556779,22.7935714 82.640451,22.833381 83.0341845,22.8705714 C83.2481816,22.8904762 83.4711391,22.9077619 83.690407,22.9255714 C84.3740381,22.9826667 85.0866589,23.0292857 85.8293236,23.067 C86.0754729,23.0790476 86.3189868,23.0926667 86.5719883,23.102619 C87.015795,23.1204286 87.4711977,23.1350952 87.9381962,23.1455714 C88.199631,23.1518571 88.4731889,23.1544762 88.7420029,23.1581429 C89.1557657,23.163381 89.5653119,23.1707143 89.9969956,23.1707143 C90.4286794,23.1707143 90.8382255,23.163381 91.2519883,23.1581429 C91.5208023,23.1544762 91.7943602,23.1518571 92.055795,23.1455714 C92.5227936,23.1350952 92.9776691,23.1204286 93.4220029,23.102619 C93.6750044,23.0926667 93.9185183,23.0790476 94.1641406,23.067 C94.9073324,23.0287619 95.6204802,22.9821429 96.3035842,22.9255714 C96.5228521,22.9072381 96.7458097,22.8904762 96.9592796,22.8705714 C97.3535403,22.833381 97.7383133,22.7935714 98.1141259,22.7511429 C98.2996603,22.7296667 98.4793968,22.706619 98.6612416,22.6840952 C99.3385476,22.5997619 99.9894993,22.5070476 100.61357,22.4049048 C100.750085,22.3829048 100.889763,22.3614286 101.023643,22.338381 C101.384697,22.2765714 101.738372,22.2121429 102.083613,22.1445714 C102.177435,22.1267619 102.268094,22.107381 102.360334,22.0890476 C103.079807,21.9439524 103.771871,21.7899524 104.437581,21.626 C104.442325,21.6244286 104.448123,21.623381 104.452867,21.6218095 C105.517054,21.3588571 106.521681,21.073381 107.501534,20.7753333 C107.566366,20.7559524 107.631725,20.7360476 107.696556,20.715619 C108.67272,20.416 109.62622,20.1043333 110.588679,19.789 C116.297552,17.9184762 122.768064,15.7991429 134.996469,15.7991429 C147.224346,15.7991429 153.694858,17.9184762 159.403731,19.789 C160.365663,20.1043333 161.318635,20.4154762 162.294272,20.715619 C162.360158,20.7360476 162.427098,20.7559524 162.493511,20.776381 C163.471783,21.0739048 164.474829,21.3588571 165.537435,21.6212857 L165.562735,21.6275714 C166.224755,21.7904762 166.912603,21.9439524 167.628387,22.088 C167.722208,22.1068571 167.814448,22.1262381 167.909851,22.1450952 C168.255092,22.2121429 168.607713,22.2765714 168.96824,22.338381 C169.103174,22.3614286 169.243906,22.3829048 169.381476,22.4054286 C170.004492,22.5070476 170.653335,22.5997619 171.329587,22.6835714 C171.511959,22.7060952 171.692223,22.7296667 171.879338,22.7511429 C172.254624,22.7935714 172.639397,22.833381 173.03313,22.8705714 C173.247127,22.8904762 173.470085,22.9072381 173.689353,22.9255714 C174.372984,22.9826667 175.085078,23.0292857 175.827742,23.067 C176.073892,23.0790476 176.317933,23.0926667 176.570407,23.102619 C177.014741,23.1204286 177.470143,23.1350952 177.936615,23.1455714 C178.198577,23.1518571 178.472135,23.1544762 178.740949,23.1581429 C179.154712,23.163381 179.563731,23.1707143 179.995941,23.1707143 C180.427625,23.1707143 180.836644,23.163381 181.250407,23.1581429 C181.519748,23.1544762 181.792779,23.1518571 182.054741,23.1455714 C182.521739,23.1350952 182.976615,23.1204286 183.420949,23.102619 C183.67395,23.0926667 183.917464,23.0790476 184.163086,23.067 C184.905751,23.0292857 185.618372,22.9826667 186.302003,22.9255714 C186.521798,22.9072381 186.744755,22.8904762 186.958753,22.8705714 C187.352486,22.833381 187.736732,22.7935714 188.112545,22.7511429 C188.299133,22.7296667 188.479397,22.706619 188.661769,22.6835714 C189.336966,22.5997619 189.98581,22.5070476 190.608826,22.4059524 C190.746922,22.3829048 190.888182,22.3614286 191.02417,22.3378571 C191.383643,22.2765714 191.736264,22.2121429 192.079924,22.1450952 C192.177435,22.1262381 192.271783,22.1063333 192.367713,22.0869524 C193.080334,21.9434286 193.766073,21.791 194.425458,21.628619 C194.434946,21.626 194.445488,21.623381 194.455502,21.6212857 C195.515473,21.359381 196.515883,21.0749524 197.492047,20.7779524 C197.562149,20.7564762 197.632779,20.7355238 197.702881,20.7135238 C198.676937,20.4144286 199.627801,20.1038095 200.588152,19.789 C206.296498,17.9184762 212.766483,15.7991429 224.994887,15.7991429 C237.223291,15.7991429 243.693804,17.9184762 249.402676,19.789 C250.364609,20.1043333 251.317054,20.4154762 252.292691,20.715619 C252.359104,20.7360476 252.425517,20.7559524 252.49193,20.776381 C253.470729,21.0739048 254.473775,21.3588571 255.536908,21.6212857 C255.544814,21.623381 255.55272,21.6254762 255.560627,21.6275714 C256.22212,21.7899524 256.910495,21.9434286 257.625224,22.0874762 C257.7201,22.1063333 257.813394,22.1262381 257.909324,22.1450952 C258.252984,22.211619 258.604551,22.2760476 258.963496,22.3373333 C259.104228,22.3619524 259.250231,22.3839524 259.393599,22.4075238 C260.007654,22.5070476 260.645956,22.5987143 261.310612,22.6809524 C261.500363,22.7050476 261.688006,22.7291429 261.881447,22.7511429 C262.254097,22.7935714 262.63518,22.8328571 263.025224,22.8695238 C263.247127,22.8904762 263.477991,22.9082857 263.705693,22.9271429 C264.376146,22.9826667 265.074536,23.0287619 265.802442,23.0654286 C266.057552,23.0785238 266.311081,23.0921429 266.574097,23.102619 C267.01316,23.1204286 267.463291,23.1345714 267.924492,23.1450476 C268.19805,23.1518571 268.483731,23.1544762 268.765722,23.1581429 C269.171578,23.163381 269.572164,23.1707143 269.995414,23.1707143 C270.418138,23.1707143 270.818196,23.163381 271.222999,23.1581429 C271.50499,23.1544762 271.791198,23.1518571 272.065283,23.1450476 C272.522794,23.1345714 272.968709,23.1204286 273.404609,23.1031429 C273.681857,23.0921429 273.949616,23.0774762 274.218958,23.0638571 C274.912076,23.0282381 275.579367,22.9847619 276.220832,22.932381 C276.477523,22.9114286 276.736849,22.891 276.985634,22.8679524 C277.357757,22.8323333 277.721447,22.794619 278.07723,22.7548095 C278.31231,22.7280952 278.538958,22.6992857 278.767186,22.6704762 C279.356996,22.5955714 279.926776,22.514381 280.476,22.426381 C280.673657,22.3949524 280.87395,22.3635238 281.067391,22.3305238 C281.39313,22.2739524 281.713072,22.2158095 282.025634,22.1555714 C282.197464,22.1220476 282.364551,22.0869524 282.532164,22.052381 C283.10458,21.9355714 283.659075,21.8119524 284.196176,21.6820476 C284.307918,21.6548095 284.421242,21.6291429 284.531403,21.6019048 C284.858196,21.5207143 285.180246,21.4369048 285.496498,21.3520476 C285.540246,21.3405238 285.583467,21.3279524 285.626688,21.3164286 C286.180656,21.1660952 286.719865,21.0094762 287.251695,20.8497143 C287.486249,20.7795238 287.719748,20.7082857 287.951666,20.636 C288.838753,20.361 289.710553,20.0765714 290.588679,19.789 C296.295971,17.919 302.765429,15.8001905 314.988035,15.7991429 L314.988035,7.10542736e-15 C311.931988,7.10542736e-15 309.235414,0.133047619 306.819777,0.360904762 C305.612223,0.474571429 304.475297,0.612857143 303.39846,0.76947619 C301.783994,1.00571429 300.305517,1.28385714 298.930876,1.59080952 C297.098196,1.99938095 295.44947,2.45719048 293.906688,2.92757143 C292.750261,3.28009524 291.652867,3.63995238 290.582881,3.99038095 C289.691578,4.28214286 288.801329,4.56761905 287.900539,4.84733333 C287.419836,4.99609524 286.933862,5.1422381 286.438928,5.28471429 C286.211754,5.34966667 285.98089,5.41409524 285.749499,5.47747619 C285.180773,5.63357143 284.594653,5.78233333 283.99272,5.92533333 C283.7919,5.973 283.592135,6.02171429 283.386571,6.06780952 C282.709265,6.21866667 282.001915,6.35852381 281.265048,6.48895238 C281.144346,6.51042857 281.039982,6.53766667 280.917698,6.55809524 C277.97234,7.05728571 274.485663,7.37157143 269.993306,7.37209524 C265.500422,7.37157143 262.013745,7.05728571 259.067859,6.55809524 C258.923438,6.53347619 258.8001,6.50204762 258.658313,6.47690476 C257.957816,6.3522381 257.281564,6.21866667 256.635356,6.07461905 C256.395531,6.02119048 256.162559,5.96461905 255.92906,5.90909524 C255.37193,5.77604762 254.827977,5.6377619 254.299309,5.49371429 C254.018899,5.41671429 253.738489,5.33919048 253.463877,5.26009524 C253.044843,5.13857143 252.632662,5.01495238 252.22417,4.8892381 C251.275414,4.59642857 250.338782,4.29733333 249.402676,3.99038095 C248.332164,3.63995238 247.23477,3.28009524 246.077816,2.92757143 C244.535561,2.45719048 242.887362,1.99938095 241.054155,1.59080952 C239.679514,1.28385714 238.201037,1.00571429 236.586044,0.76947619 C235.509734,0.612857143 234.372281,0.474571429 233.164726,0.360904762 C230.749089,0.133047619 228.051988,7.10542736e-15 224.994887,7.10542736e-15 C221.937786,7.10542736e-15 219.240685,0.133047619 216.825048,0.360904762 C215.617493,0.474571429 214.480568,0.612857143 213.403731,0.76947619 C211.789265,1.00571429 210.310261,1.28385714 208.936146,1.59080952 C207.10294,1.99938095 205.454741,2.45719048 203.911959,2.92757143 C202.755004,3.28009524 201.658138,3.63995238 200.588152,3.99038095 C199.65152,4.29733333 198.715414,4.59642857 197.767186,4.88871429 C197.358167,5.01495238 196.945458,5.13857143 196.525898,5.26009524 C196.251813,5.33919048 195.97193,5.41671429 195.690993,5.49371429 C195.162325,5.6377619 194.618372,5.77604762 194.060714,5.90909524 C193.827742,5.96461905 193.595297,6.02119048 193.356,6.07409524 C192.709265,6.21866667 192.032486,6.3522381 191.331461,6.47690476 C191.190202,6.50257143 191.066864,6.53347619 190.922969,6.55809524 C187.977083,7.05728571 184.48988,7.37209524 179.995941,7.37209524 C175.50253,7.37209524 172.014799,7.05728571 169.068914,6.55809524 C168.925019,6.53347619 168.801154,6.50257143 168.659895,6.47690476 C167.959397,6.3522381 167.282618,6.21866667 166.63641,6.07461905 C166.396059,6.02119048 166.163613,5.96461905 165.929587,5.90909524 C165.372984,5.77604762 164.829558,5.6377619 164.301944,5.49371429 C164.019953,5.41671429 163.738489,5.33866667 163.462823,5.25904762 C163.045898,5.13857143 162.635297,5.01547619 162.228387,4.89028571 C161.278577,4.59747619 160.341417,4.29785714 159.403731,3.99038095 C158.333745,3.63995238 157.236351,3.28009524 156.079397,2.92757143 C154.536615,2.45719048 152.887889,1.99938095 151.055209,1.59080952 C149.680568,1.28385714 148.202091,1.00571429 146.587098,0.76947619 C145.510261,0.612857143 144.373335,0.474571429 143.16578,0.360904762 C140.750143,0.133047619 138.053042,7.10542736e-15 134.996469,7.10542736e-15 C131.93884,7.10542736e-15 129.241739,0.133047619 126.826102,0.360904762 C125.618548,0.474571429 124.481622,0.612857143 123.404785,0.76947619 C121.789792,1.00571429 120.311842,1.28385714 118.937201,1.59080952 C117.103994,1.99938095 115.455795,2.45719048 113.913013,2.92757143 C112.756059,3.28009524 111.658665,3.63995238 110.588679,3.99038095 C109.650993,4.29785714 108.713306,4.59747619 107.762969,4.89028571 C107.357113,5.01547619 106.94704,5.13857143 106.530641,5.25904762 C106.254448,5.33866667 105.972984,5.41671429 105.689939,5.4942381 C105.162325,5.6377619 104.619426,5.77604762 104.06335,5.90857143 C103.829324,5.96461905 103.596351,6.02119048 103.356527,6.07461905 C102.709265,6.21919048 102.031432,6.3522381 101.32988,6.47742857 C101.189148,6.50257143 101.066864,6.534 100.923496,6.55809524 C97.9776105,7.05728571 94.490407,7.37209524 89.9969956,7.37209524 C85.5030571,7.37209524 82.0163807,7.05728571 79.0699678,6.55809524 C78.9260732,6.53347619 78.802735,6.50257143 78.6609488,6.47690476 C77.960451,6.3522381 77.283672,6.21866667 76.6374641,6.07461905 C76.3976398,6.02119048 76.1646676,5.96461905 75.9311684,5.90909524 C75.3740381,5.77604762 74.830612,5.6377619 74.3019444,5.49371429 C74.0210073,5.41671429 73.7405974,5.33866667 73.4654583,5.25957143 C73.0474788,5.13857143 72.6358243,5.01495238 72.2278594,4.8897619 C71.2785769,4.59695238 70.3419444,4.29785714 69.4053119,3.99038095 C68.3347994,3.63995238 67.2374056,3.28009524 66.080451,2.92757143 C64.5376691,2.45719048 62.8889429,1.99938095 61.0562635,1.59080952 C59.6816223,1.28385714 58.2031449,1.00571429 56.5886794,0.76947619 C55.5118419,0.612857143 54.3749165,0.474571429 53.1668346,0.360904762 C50.7511977,0.133047619 48.0540966,7.10542736e-15 44.9969956,7.10542736e-15 C41.9404217,7.10542736e-15 39.2433206,0.133047619 36.8276837,0.360904762 C35.6196018,0.474571429 34.4826764,0.612857143 33.406366,0.76947619 C31.7913734,1.00571429 30.312896,1.28385714 28.9382548,1.59080952 C27.1055754,1.99938095 25.4568492,2.45719048 23.9145944,2.92757143 C22.7576398,3.28009524 21.6607731,3.63995238 20.5902606,3.99038095 C19.653101,4.29785714 18.7159414,4.59695238 17.7666589,4.8897619 C17.3592211,5.01547619 16.9475666,5.13857143 16.5295871,5.25957143 C16.2549751,5.33919048 15.9745652,5.41671429 15.6936281,5.49371429 C15.1649605,5.6377619 14.6210073,5.77604762 14.0633499,5.90909524 C13.8303777,5.96461905 13.5984597,6.02119048 13.3596896,6.07409524 C12.7119004,6.21866667 12.0335403,6.3522381 11.3314612,6.47742857 C8.29966032,7.018 4.70493119,7.36528571 0.000158125915,7.36528571 L0.000158125915,23.1707143 L0.000158125915,23.1707143 Z" id="Fill-4"></path>
                            <path d="M339.406735,35.6004524 C333.697335,33.7299286 327.22735,31.6105952 314.997365,31.6105952 C302.768433,31.6105952 296.297394,33.7299286 290.588521,35.6004524 C285.280761,37.3395 280.267116,38.9816429 269.995783,38.9816429 C259.723924,38.9816429 254.710278,37.3395 249.402518,35.6004524 C243.694173,33.7299286 237.22366,31.6105952 224.995256,31.6105952 C212.766325,31.6105952 206.29634,33.7299286 200.587994,35.6004524 C195.280761,37.3395 190.266589,38.9816429 179.995783,38.9816429 C169.724451,38.9816429 164.711332,37.3395 159.403572,35.6004524 C153.6947,33.7299286 147.224714,31.6105952 134.99631,31.6105952 C122.767906,31.6105952 116.297394,33.7299286 110.588521,35.6004524 C105.281288,37.3395 100.26817,38.9816429 89.9968375,38.9816429 C79.7255051,38.9816429 74.7129136,37.3395 69.4051537,35.6004524 C63.6962811,33.7299286 57.2257687,31.6105952 44.9968375,31.6105952 C32.7689605,31.6105952 26.2989751,33.7299286 20.5901025,35.6004524 C15.2828697,37.3395 10.2702782,38.9816429 -1.13686838e-13,38.9816429 L-1.13686838e-13,54.7870714 L-1.13686838e-13,54.7870714 C10.2702782,54.7870714 15.2833968,53.143881 20.5901025,51.4053571 C26.2989751,49.5348333 32.7689605,47.4155 44.9968375,47.4155 C57.2257687,47.4155 63.6962811,49.5348333 69.4051537,51.4053571 C74.7129136,53.143881 79.7255051,54.7870714 89.9968375,54.7870714 C100.26817,54.7870714 105.281288,53.143881 110.588521,51.4053571 C116.297394,49.5348333 122.767906,47.4155 134.99631,47.4155 C147.224714,47.4155 153.6947,49.5348333 159.403572,51.4053571 C164.711332,53.143881 169.724451,54.7870714 179.995783,54.7870714 C190.266589,54.7870714 195.280761,53.143881 200.587994,51.4053571 C206.29634,49.5348333 212.766325,47.4155 224.995256,47.4155 C237.22366,47.4155 243.694173,49.5348333 249.402518,51.4053571 C254.710278,53.143881 259.723924,54.7870714 269.995783,54.7870714 C280.267116,54.7870714 285.280761,53.143881 290.588521,51.4053571 C296.297394,49.5348333 302.768433,47.4155 314.997365,47.4155 C327.22735,47.4155 333.697335,49.5348333 339.406735,51.4053571 C344.714495,53.143881 349.727613,54.7870714 360,54.7870714 L360,38.9816429 C349.727613,38.9816429 344.714495,37.3395 339.406735,35.6004524" id="Fill-1"></path>
                        </g>
                    </g>
                </g>
            </g>
        </g>
    </g>
</svg>
